<svg width="10" height="14" viewBox="0 0 10 14" fill="none" xmlns="http://www.w3.org/2000/svg">
<g clip-path="url(#clip0_48_296)">
<path d="M4.99936 -0.000654058C4.34035 -0.00966691 3.68627 0.118441 3.07572 0.376111C2.46517 0.633782 1.91052 1.01579 1.44448 1.49961C0.978449 1.98343 0.610477 2.55925 0.362277 3.19309C0.114078 3.82694 -0.00932146 4.50598 -0.000639881 5.19014C-0.000639881 9.08323 4.52019 13.5387 4.70769 13.7333L4.99936 13.9993L5.29103 13.7333C5.47853 13.5387 9.99936 9.08323 9.99936 5.19014C10.008 4.50598 9.88464 3.82694 9.63644 3.19309C9.38824 2.55925 9.02027 1.98343 8.55424 1.49961C8.08821 1.01579 7.53355 0.633782 6.923 0.376111C6.31245 0.118441 5.65837 -0.00966691 4.99936 -0.000654058ZM4.99936 6.9204C4.66972 6.9204 4.34749 6.81892 4.07341 6.6288C3.79933 6.43868 3.58571 6.16845 3.45956 5.85228C3.33341 5.53612 3.30041 5.18822 3.36472 4.85258C3.42903 4.51694 3.58776 4.20864 3.82085 3.96666C4.05394 3.72467 4.35091 3.55988 4.67421 3.49312C4.99751 3.42636 5.33262 3.46062 5.63717 3.59158C5.94171 3.72254 6.20201 3.94431 6.38514 4.22886C6.56828 4.5134 6.66603 4.84792 6.66603 5.19014C6.66603 5.64903 6.49043 6.08913 6.17787 6.41362C5.86531 6.73811 5.44139 6.9204 4.99936 6.9204Z" fill="#9C9C9C"/>
</g>
<defs>
<clipPath id="clip0_48_296">
<rect width="10" height="14" fill="white"/>
</clipPath>
</defs>
</svg>
